<svg width="24" height="24" viewBox="0 0 24 24" fill="none" xmlns="http://www.w3.org/2000/svg">
  <!-- Lightbulb outline -->
  <path d="M9 21h6M10 21v-1a2 2 0 0 1-2-2v-1.5C8 14.5 6 13 6 10a6 6 0 1 1 12 0c0 3-2 4.5-2 6.5V18a2 2 0 0 1-2 2v1" stroke="white" stroke-width="1.5" stroke-linecap="round" stroke-linejoin="round"/>
  <!-- Base lines -->
  <path d="M9.5 18h5M9.5 16.5h5" stroke="white" stroke-width="1.2" stroke-linecap="round"/>
  <!-- Code brackets </> -->
  <path d="M10 8.5L8 10.5L10 12.5" stroke="white" stroke-width="1.5" stroke-linecap="round" stroke-linejoin="round"/>
  <path d="M14 8.5L16 10.5L14 12.5" stroke="white" stroke-width="1.5" stroke-linecap="round" stroke-linejoin="round"/>
  <path d="M12.5 8L11.5 13" stroke="white" stroke-width="1.2" stroke-linecap="round"/>
</svg>
